<svg width="726" height="733" viewBox="0 0 726 733" fill="none" xmlns="http://www.w3.org/2000/svg">
<path d="M142.876 322.806L80.4088 303.257L91.7201 267.113L96.8444 268.717L87.3181 299.157L110.835 306.517L119.473 278.913L124.598 280.516L115.959 308.12L144.661 317.102L142.876 322.806Z" fill="#FFC700"/>
<path d="M163.804 202.867C169.453 206.684 173.69 211.013 176.514 215.853C179.32 220.681 180.678 225.635 180.587 230.717C180.49 235.769 178.897 240.581 175.808 245.154C172.718 249.726 168.841 253.008 164.178 255C159.509 256.963 154.411 257.542 148.885 256.74C143.353 255.907 137.762 253.582 132.113 249.765C126.464 245.947 122.23 241.633 119.411 236.823C116.587 231.983 115.23 227.028 115.338 221.959C115.429 216.877 117.013 212.059 120.091 207.504C123.181 202.932 127.06 199.664 131.729 197.702C136.393 195.71 141.496 195.122 147.04 195.936C152.567 196.739 158.154 199.049 163.804 202.867ZM160.547 207.686C155.692 204.406 150.986 202.408 146.428 201.694C141.853 200.968 137.699 201.389 133.966 202.955C130.233 204.521 127.162 207.087 124.752 210.654C122.354 214.202 121.125 218 121.064 222.048C121.003 226.095 122.148 230.109 124.499 234.089C126.862 238.052 130.479 241.679 135.352 244.972C140.207 248.252 144.913 250.25 149.471 250.964C154.028 251.678 158.182 251.257 161.933 249.703C165.666 248.137 168.737 245.571 171.147 242.004C173.557 238.438 174.792 234.631 174.853 230.584C174.925 226.518 173.78 222.505 171.418 218.542C169.037 214.568 165.414 210.949 160.547 207.686Z" fill="#FFC700"/>
<path d="M225.904 146.387C230.062 151.79 232.718 157.234 233.873 162.717C235.014 168.183 234.741 173.314 233.053 178.108C231.369 182.872 228.341 186.936 223.967 190.302C219.594 193.667 214.88 195.561 209.827 195.981C204.777 196.372 199.757 195.315 194.765 192.812C189.777 190.278 185.205 186.309 181.046 180.906C176.888 175.502 174.23 170.074 173.071 164.621C171.917 159.137 172.19 154.007 173.891 149.23C175.579 144.436 178.601 140.363 182.957 137.01C187.331 133.645 192.042 131.767 197.092 131.376C202.145 130.955 207.174 132.005 212.179 134.526C217.171 137.03 221.745 140.983 225.904 146.387ZM221.294 149.934C217.72 145.291 213.883 141.912 209.783 139.798C205.67 137.667 201.595 136.756 197.559 137.066C193.522 137.376 189.799 138.843 186.388 141.468C182.994 144.08 180.63 147.297 179.297 151.119C177.963 154.941 177.785 159.112 178.761 163.63C179.755 168.135 182.044 172.718 185.631 177.378C189.204 182.022 193.041 185.4 197.142 187.515C201.242 189.629 205.317 190.539 209.366 190.246C213.402 189.936 217.126 188.469 220.537 185.844C223.948 183.219 226.32 179.996 227.653 176.174C229.004 172.338 229.182 168.168 228.189 163.663C227.182 159.141 224.884 154.565 221.294 149.934Z" fill="#FFC700"/>
<path d="M239.158 106.315L237.307 101.274L281.861 84.9175L283.711 89.9579L264.24 97.1065L284.947 153.511L279.337 155.57L258.629 99.1662L239.158 106.315Z" fill="#FFC700"/>
<path d="M323.836 140.424L320.177 75.0717L342.227 73.8369C346.481 73.5986 350.065 74.1448 352.978 75.4755C355.912 76.8051 358.164 78.717 359.733 81.2112C361.303 83.7055 362.179 86.5907 362.363 89.8668C362.515 92.5898 362.188 94.9449 361.382 96.932C360.575 98.9191 359.418 100.552 357.911 101.832C356.403 103.111 354.697 104.071 352.791 104.711L352.819 105.222C354.934 105.253 357.017 105.883 359.071 107.113C361.123 108.321 362.854 110.08 364.264 112.392C365.674 114.703 366.472 117.518 366.658 120.836C366.842 124.134 366.273 127.121 364.951 129.799C363.627 132.455 361.486 134.613 358.527 136.272C355.589 137.909 351.779 138.859 347.099 139.121L323.836 140.424ZM329.503 134.729L346.799 133.76C351.841 133.478 355.501 132.153 357.78 129.784C360.08 127.415 361.135 124.539 360.946 121.156C360.806 118.667 360.074 116.446 358.748 114.493C357.442 112.518 355.661 110.995 353.403 109.927C351.166 108.857 348.58 108.404 345.644 108.569L328.094 109.552L329.503 134.729ZM327.797 104.254L344.422 103.323C346.996 103.179 349.221 102.521 351.098 101.349C352.974 100.177 354.402 98.6246 355.382 96.6918C356.363 94.7589 356.785 92.5906 356.651 90.1867C356.456 86.7191 355.171 83.9635 352.795 81.9199C350.417 79.855 346.994 78.9476 342.527 79.1978L326.444 80.0984L327.797 104.254Z" fill="#FFC700"/>
<path d="M390.522 138.232L384.439 136.736L423.199 78.8662L429.406 80.3935L436.888 149.641L430.805 148.145L424.664 87.2247L424.23 87.1178L390.522 138.232ZM400.893 114.947L432.424 122.706L431.141 127.92L399.61 120.161L400.893 114.947Z" fill="#FFC700"/>
<path d="M453.166 155.476L485.703 98.6814L490.888 101.652L461.021 153.788L488.088 169.294L485.419 173.953L453.166 155.476Z" fill="#FFC700"/>
<path d="M503.291 185.722L549.602 139.467L553.825 143.696L511.313 186.157L533.357 208.227L529.558 212.021L503.291 185.722Z" fill="#FFC700"/>
<path d="M562.045 256.642L623.078 232.992L630.711 252.69C632.389 257.021 632.956 260.961 632.411 264.508C631.894 268.067 630.5 271.133 628.228 273.704C625.965 276.295 623.055 278.279 619.498 279.657C615.942 281.035 612.449 281.544 609.018 281.182C605.607 280.813 602.506 279.501 599.713 277.247C596.94 274.986 594.718 271.699 593.047 267.388L587.042 251.892L592.049 249.952L597.996 265.299C599.236 268.498 600.859 270.919 602.868 272.563C604.896 274.199 607.153 275.13 609.639 275.355C612.133 275.599 614.711 275.206 617.374 274.174C620.036 273.142 622.206 271.696 623.884 269.835C625.57 267.993 626.597 265.779 626.965 263.191C627.341 260.623 626.902 257.72 625.647 254.481L620.231 240.505L564.205 262.215L562.045 256.642Z" fill="#FFC700"/>
<path d="M583.815 316.289L649.008 310.44L650.896 331.481C651.311 336.108 650.819 340.045 649.42 343.294C648.045 346.562 645.953 349.114 643.144 350.949C640.358 352.803 637.066 353.901 633.267 354.241C629.468 354.582 626.044 354.087 622.994 352.756C619.946 351.447 617.466 349.316 615.553 346.364C613.641 343.413 612.48 339.645 612.069 335.061L610.461 317.139L615.904 316.651L617.498 334.413C617.802 337.809 618.618 340.581 619.944 342.729C621.273 344.899 623.026 346.443 625.205 347.36C627.386 348.298 629.898 348.639 632.742 348.384C635.585 348.129 638.018 347.344 640.039 346.029C642.082 344.712 643.585 342.866 644.548 340.49C645.513 338.136 645.842 335.24 645.533 331.802L644.194 316.873L584.349 322.242L583.815 316.289ZM615.807 342.395L587.833 361.077L587.216 354.201L615.204 335.678L615.807 342.395Z" fill="#FFC700"/>
<path d="M609.902 439.827C603.232 438.414 597.678 435.997 593.241 432.574C588.825 429.156 585.703 425.076 583.876 420.333C582.066 415.616 581.732 410.558 582.875 405.159C584.018 399.76 586.376 395.261 589.947 391.662C593.536 388.087 598.041 385.633 603.463 384.298C608.902 382.989 614.957 383.04 621.627 384.453C628.298 385.865 633.843 388.27 638.264 391.667C642.701 395.09 645.822 399.17 647.628 403.908C649.455 408.651 649.799 413.711 648.661 419.089C647.517 424.488 645.152 428.975 641.564 432.549C637.992 436.148 633.484 438.613 628.041 439.943C622.618 441.278 616.572 441.239 609.902 439.827ZM611.107 434.136C616.839 435.35 621.951 435.431 626.443 434.378C630.955 433.33 634.646 431.378 637.516 428.523C640.385 425.668 642.266 422.135 643.158 417.924C644.045 413.734 643.755 409.753 642.289 405.979C640.823 402.206 638.253 398.917 634.578 396.114C630.898 393.331 626.182 391.33 620.429 390.112C614.697 388.898 609.585 388.818 605.093 389.87C600.601 390.923 596.91 392.875 594.02 395.726C591.15 398.581 589.27 402.114 588.378 406.324C587.486 410.535 587.774 414.527 589.24 418.3C590.701 422.094 593.272 425.383 596.951 428.166C600.652 430.953 605.37 432.943 611.107 434.136Z" fill="#FFC700"/>
<path d="M617.5 505.31L614.703 510.592L572.986 488.501C569.23 486.488 566.444 484.145 564.629 481.472C562.833 478.809 561.936 475.972 561.94 472.96C561.943 469.948 562.753 466.917 564.368 463.867C565.953 460.873 567.925 458.493 570.282 456.728C572.639 454.962 575.184 453.935 577.917 453.646C580.64 453.376 583.357 453.959 586.068 455.395L583.316 460.592C581.603 459.685 579.848 459.334 578.051 459.54C576.273 459.755 574.603 460.45 573.041 461.624C571.47 462.817 570.16 464.402 569.113 466.379C568.026 468.432 567.507 470.459 567.556 472.462C567.594 474.484 568.274 476.411 569.594 478.243C570.933 480.085 572.996 481.744 575.783 483.22L617.5 505.31Z" fill="#FFC700"/>
<path d="M544.356 501.952L592.504 546.293L566.783 574.222L562.833 570.585L584.505 547.052L566.379 530.359L546.071 552.411L542.121 548.774L562.43 526.722L544.257 509.986L522.151 533.99L518.202 530.352L544.356 501.952Z" fill="#FFC700"/>
<path d="M482.312 611.15L487.478 608.082C489.005 609.777 490.757 611.141 492.732 612.173C494.701 613.234 496.801 613.932 499.032 614.268C501.263 614.603 503.532 614.544 505.84 614.091C508.148 613.637 510.41 612.752 512.627 611.436C516.181 609.325 518.874 606.475 520.707 602.884C522.521 599.303 523.241 595.196 522.868 590.561C522.487 585.955 520.757 581.06 517.678 575.875C514.578 570.654 511.097 566.774 507.235 564.235C503.355 561.707 499.409 560.382 495.397 560.262C491.378 560.17 487.591 561.18 484.037 563.29C481.821 564.607 479.961 566.169 478.458 567.979C476.955 569.788 475.812 571.743 475.027 573.844C474.254 575.964 473.862 578.142 473.852 580.378C473.824 582.625 474.188 584.825 474.946 586.977L469.779 590.045C468.703 587.19 468.134 584.269 468.071 581.283C468 578.327 468.441 575.439 469.393 572.618C470.327 569.809 471.771 567.192 473.726 564.767C475.681 562.342 478.161 560.238 481.165 558.454C485.892 555.647 490.789 554.337 495.856 554.525C500.935 554.731 505.802 556.375 510.458 559.459C515.095 562.553 519.16 567.04 522.652 572.921C526.144 578.802 528.139 584.519 528.636 590.072C529.115 595.636 528.224 600.687 525.964 605.226C523.714 609.783 520.226 613.466 515.499 616.272C512.495 618.056 509.46 619.227 506.395 619.783C503.341 620.357 500.352 620.373 497.428 619.829C494.496 619.315 491.749 618.32 489.187 616.843C486.606 615.377 484.315 613.479 482.312 611.15Z" fill="#FFC700"/>
<path d="M457.967 639.445L459.201 644.67L413.01 655.578L411.776 650.353L431.963 645.585L418.154 587.109L423.97 585.735L437.78 644.212L457.967 639.445Z" fill="#FFC700"/>
<path d="M283.034 627.846L288.879 629.236C288.797 631.516 289.107 633.714 289.808 635.83C290.484 637.961 291.507 639.924 292.876 641.717C294.246 643.51 295.917 645.046 297.891 646.326C299.864 647.605 302.105 648.543 304.613 649.139C308.635 650.095 312.552 649.921 316.367 648.616C320.161 647.306 323.535 644.856 326.491 641.266C329.422 637.692 331.584 632.972 332.979 627.106C334.384 621.198 334.582 615.989 333.574 611.479C332.545 606.964 330.631 603.267 327.833 600.39C325.009 597.529 321.587 595.62 317.565 594.664C315.057 594.067 312.634 593.896 310.296 594.151C307.958 594.405 305.776 595.014 303.751 595.978C301.721 596.963 299.924 598.255 298.361 599.855C296.778 601.449 295.51 603.283 294.557 605.356L288.711 603.966C289.924 601.167 291.547 598.672 293.578 596.483C295.584 594.31 297.91 592.542 300.556 591.178C303.181 589.809 306.039 588.934 309.13 588.552C312.221 588.17 315.467 588.383 318.866 589.191C324.214 590.463 328.643 592.928 332.153 596.588C335.659 600.269 338.011 604.836 339.211 610.29C340.39 615.739 340.189 621.79 338.607 628.444C337.025 635.098 334.481 640.593 330.976 644.928C327.449 649.258 323.295 652.267 318.514 653.956C313.727 655.665 308.66 655.883 303.312 654.612C299.912 653.804 296.918 652.533 294.33 650.801C291.736 649.089 289.578 647.021 287.855 644.597C286.106 642.188 284.825 639.562 284.012 636.718C283.178 633.87 282.852 630.913 283.034 627.846Z" fill="#FFC700"/>
<path d="M235.804 630.336L265.924 572.223L271.23 574.974L241.11 633.086L235.804 630.336Z" fill="#FFC700"/>
<path d="M206.256 609.193L202.793 613.297L166.521 582.688L169.984 578.585L185.836 591.962L224.586 546.042L229.154 549.896L190.403 595.816L206.256 609.193Z" fill="#FFC700"/>
<path d="M142.885 560.239L139.058 554.494L154.157 521.126L153.838 520.647L117.229 521.724L113.402 515.978L157.377 515.064L180.971 499.348L184.266 504.296L160.673 520.012L142.885 560.239Z" fill="#FFC700"/>
</svg>
